<?xml version="1.0" encoding="UTF-8"?>
<svg width="128" height="128" viewBox="0 0 128 128" fill="none" xmlns="http://www.w3.org/2000/svg">
  <!-- Background circle -->
  <circle cx="64" cy="64" r="60" fill="#4285F4"/>
  
  <!-- Star shape for the factify logo -->
  <path d="M64 24C65.8396 24 67.5169 25.0938 68.2426 26.7554L76.5695 43.5475C77.0169 44.4423 77.8444 45.0851 78.8164 45.3005L97.3244 49.4154C99.1641 49.8462 100.472 51.5235 100.472 53.4246C100.472 54.3194 100.118 55.1469 99.5366 55.8111L86.1339 70.1524C85.4697 70.8166 85.1774 71.7729 85.4082 72.7292L89.3432 91.3592C89.7125 93.1989 88.6187 95.0386 86.8405 95.8661C85.9457 96.2354 85.0509 96.2354 84.2233 95.9432L66.9795 87.3165C66.1519 86.9473 65.0581 86.9473 64.192 87.3165L46.9482 95.9432C45.1701 96.7707 43.0918 96.0449 42.2642 94.3062C41.9719 93.5401 41.9719 92.6453 42.2027 91.7505L46.1376 73.1205C46.3684 72.2257 46.0762 71.2695 45.412 70.6052L32.0093 56.264C30.7278 54.9209 30.7278 52.8427 32.0709 51.4996C32.7351 50.9182 33.5626 50.5644 34.4574 50.5644L53.1265 46.4496C54.0984 46.2342 54.9259 45.5914 55.3733 44.6966L63.7003 27.9045C64.1476 26.8722 65.0424 26.0446 64 24Z" fill="white"/>
  
  <!-- Inner star for highlight -->
  <path d="M64 40C64.9199 40 65.7584 40.5469 66.1213 41.3777L70.6347 50.4237C70.8584 50.8711 71.2722 51.1925 71.7582 51.3002L81.8622 53.3577C82.7821 53.5731 83.4363 54.4117 83.4363 55.3623C83.4363 55.8097 83.2595 56.2234 82.9683 56.5555L75.8169 63.8262C75.4848 64.1583 75.3387 64.6364 75.4541 65.1146L77.4116 75.2796C77.5963 76.1994 77.0493 77.0994 76.1702 77.5084C75.7229 77.6931 75.2755 77.6931 74.866 77.5468L65.7392 72.8932C65.3104 72.6775 64.779 72.6775 64.346 72.8932L55.2249 77.5468C54.3457 77.9557 53.3359 77.5927 52.9318 76.7136C52.7856 76.3041 52.7856 75.8567 52.9 75.3787L54.8575 65.2136C54.9729 64.7355 54.8268 64.2573 54.4947 63.9252L47.3433 56.6545C46.7963 55.9591 46.7963 54.9899 47.4364 54.3533C47.7684 54.0621 48.1822 53.8852 48.6295 53.8852L58.8027 51.8277C59.2887 51.72 59.7025 51.3985 59.9261 50.9512L64.4396 41.9052C64.6838 41.3583 65.3073 40.9698 64 40Z" fill="#3367D6"/>
  
  <!-- Text "FactifyAI" at the bottom -->
  <text x="64" y="110" font-family="Arial" font-size="14" fill="white" text-anchor="middle">FactifyAI</text>
</svg>